<svg width="101" height="26" viewBox="0 0 101 26" fill="none" xmlns="http://www.w3.org/2000/svg">
<g clip-path="url(#clip0_164_2058)">
<path d="M2.90979 0.907608C1.89207 0.788042 1.12736 0.698116 0.633057 0.5H50.4988C50.4988 0.5 50.4999 5.10963 50.5001 11.7223C50.5001 10.8434 50.5001 10.0006 50.5001 9.19884L50.5014 0.5H100.367C99.8728 0.698116 99.1081 0.788042 98.0906 0.907608C95.3876 1.225 90.9018 1.75152 84.9575 5.07427C80.8648 7.46369 77.6183 10.6615 74.4001 13.8315C68.2407 19.8978 62.1852 25.8623 50.5014 25.8623C50.5005 22.0427 50.5001 18.3049 50.5001 14.9238C50.5001 18.3053 50.4996 22.0424 50.4988 25.8623C38.8149 25.8623 32.7594 19.8978 26.6002 13.8315C23.382 10.6615 20.1354 7.46369 16.0428 5.07427C10.0987 1.75152 5.61228 1.225 2.90979 0.907608Z" fill="white"/>
<path fill-rule="evenodd" clip-rule="evenodd" d="M50.5002 13.5L44.5161 7.5H56.4842L50.5002 13.5Z" fill="#9354F0"/>
</g>
<defs>
<clipPath id="clip0_164_2058">
<rect width="101" height="26" fill="white"/>
</clipPath>
</defs>
</svg>
