<svg width="24" height="24" viewBox="0 0 24 24" fill="none" xmlns="http://www.w3.org/2000/svg">
<path d="M8.14795 6.55625C8.14775 6.96878 7.98172 7.36434 7.68639 7.6559C7.39107 7.94746 6.99063 8.11114 6.57319 8.11094C6.15575 8.11073 5.75548 7.94666 5.46045 7.6548C5.16542 7.36295 4.99979 6.96723 5 6.55469C5.00021 6.14216 5.16624 5.7466 5.46156 5.45504C5.75689 5.16348 6.15732 4.99979 6.57476 5C6.99221 5.00021 7.39247 5.16428 7.6875 5.45614C7.98253 5.74799 8.14816 6.14371 8.14795 6.55625ZM8.19517 9.26276H5.04722V19H8.19517V9.26276ZM13.1689 9.26276H10.0367V19H13.1375V13.8903C13.1375 11.0438 16.8914 10.7793 16.8914 13.8903V19H20V12.8326C20 8.03394 14.4439 8.21282 13.1375 10.5694L13.1689 9.26276Z" fill="#9354F0"/>
</svg>
