<svg width="17" height="16" viewBox="0 0 17 16" fill="none" xmlns="http://www.w3.org/2000/svg">
<path d="M14.6929 13.6463L11.5635 10.5175C12.4705 9.42859 12.9228 8.03189 12.8263 6.61798C12.7297 5.20407 12.0918 3.88181 11.0452 2.92625C9.99862 1.9707 8.62391 1.45543 7.20707 1.48763C5.79024 1.51983 4.44036 2.09702 3.43825 3.09913C2.43613 4.10125 1.85894 5.45113 1.82674 6.86796C1.79454 8.2848 2.30981 9.65951 3.26536 10.7061C4.22092 11.7527 5.54318 12.3906 6.95709 12.4872C8.371 12.5837 9.7677 12.1314 10.8566 11.2244L13.9854 14.3538C14.0318 14.4002 14.087 14.4371 14.1477 14.4622C14.2084 14.4874 14.2734 14.5003 14.3391 14.5003C14.4048 14.5003 14.4699 14.4874 14.5306 14.4622C14.5913 14.4371 14.6464 14.4002 14.6929 14.3538C14.7393 14.3073 14.7762 14.2522 14.8013 14.1915C14.8265 14.1308 14.8394 14.0657 14.8394 14C14.8394 13.9343 14.8265 13.8693 14.8013 13.8086C14.7762 13.7479 14.7393 13.6927 14.6929 13.6463ZM2.83913 7.00002C2.83913 6.11 3.10305 5.23998 3.59752 4.49995C4.09198 3.75993 4.79479 3.18316 5.61706 2.84256C6.43932 2.50197 7.34412 2.41285 8.21704 2.58649C9.08995 2.76012 9.89178 3.1887 10.5211 3.81804C11.1504 4.44738 11.579 5.2492 11.7527 6.12211C11.9263 6.99503 11.8372 7.89983 11.4966 8.7221C11.156 9.54436 10.5792 10.2472 9.8392 10.7416C9.09918 11.2361 8.22915 11.5 7.33913 11.5C6.14606 11.4987 5.00224 11.0242 4.15861 10.1805C3.31499 9.33691 2.84046 8.19309 2.83913 7.00002Z" fill="white"/>
</svg>
