<svg width="60" height="60" viewBox="0 0 60 60" fill="none" xmlns="http://www.w3.org/2000/svg">
<path d="M6.9964 25.2041L30.0573 5.58142L53.1148 25.2041L35.0351 49.7623L18.7974 49.4321L6.9964 25.2041Z" fill="#9354F0"/>
<path opacity="0.3" d="M6.9964 25.2041L30.0573 5.58142L53.1148 25.2041L35.0351 49.7623L18.7974 49.4321L6.9964 25.2041Z" fill="black"/>
<path d="M45.7436 4.57391H14.3672C13.9737 4.57391 13.6547 4.89698 13.6547 5.29551V46.9576C13.6547 47.3561 13.9737 47.6792 14.3672 47.6792H45.7436C46.1371 47.6792 46.4562 47.3561 46.4562 46.9576V5.29551C46.4562 4.89698 46.1371 4.57391 45.7436 4.57391Z" fill="#F4EEFE"/>
<path d="M31.2907 42.3182L31.163 42.2467C30.6958 41.9847 30.1311 41.9881 29.6673 42.2535L29.0455 42.6109L6.88538 25.2041V53.9251C6.88538 54.7726 7.56769 55.4261 8.40462 55.4261H51.7097C52.5433 55.4261 52.9332 54.776 52.9332 53.9251V25.2041L31.2907 42.3182Z" fill="#9354F0"/>
<path opacity="0.6" d="M31.2907 42.3182L31.163 42.2467C30.6958 41.9847 30.1311 41.9881 29.6673 42.2535L29.0455 42.6109L6.88538 25.2041V53.9251C6.88538 54.7726 7.56769 55.4261 8.40462 55.4261H51.7097C52.5433 55.4261 52.9332 54.776 52.9332 53.9251V25.2041L31.2907 42.3182Z" fill="white"/>
<path opacity="0.2" d="M28.044 41.8248L29.0456 42.611L13.386 51.614L28.044 41.8248Z" fill="black"/>
<path opacity="0.2" d="M48.3955 51.9543L31.2671 42.3353L32.057 41.709L48.3955 51.9543Z" fill="black"/>
<path d="M27.613 20.6618V17.6264H25.3718V22.5488C25.3718 22.5756 25.3781 22.6015 25.3798 22.6283C25.3816 22.6551 25.3843 22.6837 25.3887 22.7148C25.396 22.7625 25.407 22.8096 25.4217 22.8558C25.4279 22.8756 25.4333 22.8955 25.4404 22.9154C25.4596 22.9676 25.4832 23.0182 25.5107 23.0668C25.5152 23.0754 25.5179 23.0849 25.5232 23.0944C25.527 23.0988 25.5306 23.1035 25.5339 23.1083C25.5641 23.157 25.5984 23.2033 25.6363 23.2466C25.647 23.2587 25.6568 23.2717 25.6683 23.2838C25.7059 23.323 25.7463 23.3594 25.7894 23.3928C25.8028 23.4045 25.8167 23.4154 25.8313 23.4256C25.8741 23.4562 25.9194 23.4833 25.9666 23.5069L26.0174 23.5337C26.0621 23.5534 26.1082 23.5698 26.1554 23.583C26.1785 23.5908 26.2017 23.5986 26.2248 23.6047C26.2654 23.6135 26.3064 23.6202 26.3477 23.6245C26.3824 23.6289 26.4163 23.6332 26.4519 23.6349C26.4644 23.6349 26.4768 23.6349 26.4893 23.6349H26.4946C26.5178 23.6349 26.5392 23.6297 26.5614 23.628C26.599 23.6267 26.6365 23.6233 26.6736 23.6176C26.7127 23.6112 26.7513 23.6026 26.7894 23.5917C26.8195 23.5839 26.8492 23.5747 26.8784 23.564C26.92 23.5491 26.9604 23.5315 26.9995 23.5113C27.0164 23.5026 27.0342 23.4983 27.0503 23.4888L34.4469 19.3378V16.8274L27.613 20.6618Z" fill="#9354F0"/>
</svg>
