<svg width="154" height="29" viewBox="0 0 154 29" fill="none" xmlns="http://www.w3.org/2000/svg">
<g clip-path="url(#clip0_164_2008)">
<path d="M28.1568 0.5H0.339111V28.5H28.1568V0.5Z" fill="#9354F0"/>
<path d="M10.5915 14.5513V9.54622H7.02576V17.6627C7.02576 17.7069 7.03567 17.7497 7.03851 17.7939C7.04134 17.8381 7.04559 17.8852 7.05267 17.9365C7.06426 18.0152 7.08179 18.0929 7.10509 18.169C7.11501 18.2017 7.12351 18.2345 7.13484 18.2673C7.16546 18.3534 7.20289 18.4368 7.24676 18.5169C7.25384 18.5311 7.25809 18.5468 7.26659 18.5625C7.2727 18.5698 7.27838 18.5774 7.28359 18.5853C7.33172 18.6657 7.3862 18.742 7.44651 18.8135C7.46351 18.8334 7.47909 18.8548 7.49751 18.8748C7.5572 18.9394 7.6216 18.9995 7.69017 19.0545C7.71138 19.0737 7.73361 19.0918 7.75676 19.1087C7.82491 19.159 7.89691 19.2038 7.97209 19.2427L8.05284 19.2869C8.124 19.3193 8.19738 19.3464 8.27242 19.3682C8.30926 19.381 8.34609 19.3938 8.38292 19.4038C8.44743 19.4185 8.5127 19.4294 8.57842 19.4366C8.63367 19.4438 8.68751 19.4509 8.74417 19.4537C8.76401 19.4537 8.78384 19.4537 8.80367 19.4537H8.81217C8.84901 19.4537 8.88301 19.4452 8.91842 19.4423C8.97821 19.4402 9.03782 19.4345 9.09692 19.4252C9.15911 19.4147 9.2206 19.4004 9.28109 19.3824C9.32905 19.3697 9.37633 19.3544 9.42276 19.3368C9.48885 19.3122 9.55322 19.2831 9.61542 19.2498C9.64234 19.2356 9.67067 19.2284 9.69617 19.2127L21.4644 12.3682V8.22864L10.5915 14.5513Z" fill="white"/>
<path d="M53.9755 10.9323C53.9755 7.79525 51.842 5.60071 48.3018 5.60071H41.5018V23.2825H44.1141V16.264H48.0694L52.0758 23.2882H54.9247L50.6931 15.8733C52.777 15.1018 53.9755 13.2795 53.9755 10.9323ZM44.1141 7.8751H48.2224C50.4891 7.8751 51.3604 9.31531 51.3604 10.9323C51.3604 12.5494 50.4891 13.9896 48.2224 13.9896H44.1141V7.8751Z" fill="black"/>
<path d="M62.4103 10.3519C59.424 10.3519 57.1687 12.2214 56.9633 14.7225H59.2228C59.2979 13.4391 60.5786 12.3226 62.3395 12.3226C64.2973 12.3226 65.4023 13.3835 65.4023 14.925C65.4023 15.3798 65.1261 15.6836 64.5523 15.6836H61.9088C58.9211 15.6836 56.9888 17.1994 56.9888 19.6506C56.9888 21.925 58.6958 23.4907 61.2813 23.4907C63.1895 23.4907 64.796 22.5809 65.3981 21.2163V23.2882H67.8333V15.0761C67.8333 12.247 65.6743 10.3519 62.4103 10.3519ZM65.3981 17.7041C65.3981 20.0541 64.0678 21.5457 61.7587 21.5457C60.3519 21.5457 59.3985 20.7628 59.3985 19.5992C59.3985 18.2603 60.478 17.4018 62.1355 17.4018H65.3938L65.3981 17.7041Z" fill="black"/>
<path d="M77.1465 10.3519C75.2638 10.3519 73.7579 11.2075 73.0807 12.8031V10.553H70.6454V23.2882H73.0807V16.3908C73.0807 14.1664 74.486 12.5493 76.4694 12.5493C78.2515 12.5493 79.4316 13.914 79.4316 15.936V23.2882H81.8669V15.4554C81.8669 12.4238 80.0082 10.3519 77.1465 10.3519Z" fill="black"/>
<path d="M96.2262 10.553H93.0628L87.5661 15.6322V5.22278H85.1053V23.2882H87.5661V18.6652L89.1471 17.1994L93.6904 23.2882H96.7036L90.9038 15.531L96.2262 10.553Z" fill="black"/>
<path d="M118.645 10.3519C114.854 10.3519 112.114 13.1054 112.114 16.9213C112.114 20.7371 114.85 23.4907 118.641 23.4907C122.432 23.4907 125.147 20.7371 125.147 16.9213C125.147 13.1054 122.436 10.3519 118.645 10.3519ZM118.645 21.3432C116.237 21.3432 114.603 19.5237 114.603 16.9227C114.603 14.3218 116.235 12.5023 118.645 12.5023C121.029 12.5023 122.661 14.3218 122.661 16.9227C122.661 19.5237 121.029 21.3432 118.645 21.3432Z" fill="black"/>
<path d="M134.034 10.3519C132.151 10.3519 130.644 11.2075 129.967 12.8031V10.553H127.532V23.2882H129.964V16.3908C129.964 14.1664 131.369 12.5493 133.353 12.5493C135.135 12.5493 136.315 13.914 136.315 15.936V23.2882H138.747V15.4554C138.747 12.4238 136.896 10.3519 134.034 10.3519Z" fill="black"/>
<path d="M150.904 19.1444C150.553 20.5846 149.346 21.3931 147.49 21.3931C145.281 21.3931 143.724 19.7518 143.523 17.3505H153.189C153.213 17.1238 153.239 16.7188 153.239 16.3908C153.239 13.1568 151.155 10.3519 147.239 10.3519C143.347 10.3519 141.139 13.2823 141.139 16.8457C141.139 20.3835 143.574 23.4907 147.49 23.4907C150.606 23.4907 152.887 21.7795 153.339 19.1444H150.904ZM147.239 12.3226C149.323 12.3226 150.628 13.606 150.781 15.5567H143.601C143.975 13.4348 145.256 12.3226 147.239 12.3226Z" fill="black"/>
<path d="M107.197 12.4239C106.445 11.1847 104.913 10.352 103.181 10.352C99.3145 10.352 97.13 13.1311 97.13 16.9213C97.13 20.7115 99.3145 23.4907 103.206 23.4907C104.888 23.4907 106.445 22.6565 107.197 21.3931V23.2882H109.632V5.2998L107.197 7.23054V12.4239ZM103.482 21.3432C101.148 21.3432 99.6163 19.575 99.6163 16.9227C99.6163 14.2705 101.148 12.5023 103.482 12.5023C105.841 12.5023 107.373 14.2705 107.373 16.9227C107.373 19.575 105.841 21.3432 103.482 21.3432Z" fill="black"/>
</g>
<defs>
<clipPath id="clip0_164_2008">
<rect width="153" height="28" fill="white" transform="translate(0.339111 0.5)"/>
</clipPath>
</defs>
</svg>
