<svg width="186" height="32" viewBox="0 0 186 32" fill="none" xmlns="http://www.w3.org/2000/svg">
<g clip-path="url(#clip0_525_7118)">
<path d="M27.8177 4H0V32H27.8177V4Z" fill="#9354F0"/>
<path d="M10.2523 18.0513V13.0462H6.68652V21.1628C6.68652 21.207 6.69644 21.2497 6.69927 21.294C6.70211 21.3382 6.70636 21.3852 6.71344 21.4365C6.72503 21.5152 6.74255 21.593 6.76586 21.669C6.77577 21.7018 6.78427 21.7346 6.79561 21.7674C6.82623 21.8534 6.86366 21.9369 6.90752 22.0169C6.91461 22.0312 6.91886 22.0469 6.92736 22.0625C6.93347 22.0698 6.93915 22.0774 6.94436 22.0854C6.99249 22.1657 7.04697 22.242 7.10727 22.3135C7.12427 22.3335 7.13986 22.3549 7.15827 22.3748C7.21797 22.4394 7.28237 22.4995 7.35094 22.5545C7.37215 22.5738 7.39437 22.5918 7.41752 22.6087C7.48567 22.659 7.55768 22.7038 7.63286 22.7427L7.71361 22.7869C7.78476 22.8193 7.85815 22.8465 7.93319 22.8682C7.97002 22.881 8.00686 22.8939 8.04369 22.9039C8.10819 22.9185 8.17346 22.9294 8.23919 22.9366C8.29444 22.9438 8.34827 22.9509 8.40494 22.9538C8.42477 22.9538 8.44461 22.9538 8.46444 22.9538H8.47294C8.50977 22.9538 8.54377 22.9452 8.57919 22.9424C8.63898 22.9403 8.69858 22.9345 8.75769 22.9252C8.81987 22.9147 8.88137 22.9004 8.94186 22.8825C8.98982 22.8697 9.0371 22.8544 9.08352 22.8368C9.14962 22.8122 9.21398 22.7832 9.27619 22.7498C9.30311 22.7356 9.33144 22.7285 9.35694 22.7128L21.1252 15.8682V11.7287L10.2523 18.0513Z" fill="white"/>
<path d="M53.6368 14.4323C53.6368 11.2952 51.5033 9.10063 47.9631 9.10063H41.1631V26.7824H43.7754V19.7639H47.7308L51.7371 26.7881H54.586L50.3544 19.3732C52.4383 18.6018 53.6368 16.7794 53.6368 14.4323ZM43.7754 11.375H47.8838C50.1504 11.375 51.0217 12.8152 51.0217 14.4323C51.0217 16.0493 50.1504 17.4895 47.8838 17.4895H43.7754V11.375Z" fill="black"/>
<path d="M62.0721 13.8519C59.0857 13.8519 56.8304 15.7213 56.625 18.2224H58.8846C58.9597 16.9391 60.2403 15.8226 62.0012 15.8226C63.9591 15.8226 65.0641 16.8835 65.0641 18.4249C65.0641 18.8798 64.7878 19.1835 64.2141 19.1835H61.5706C58.5828 19.1835 56.6505 20.6993 56.6505 23.1505C56.6505 25.4249 58.3576 26.9906 60.943 26.9906C62.8512 26.9906 64.4577 26.0809 65.0598 24.7162V26.7881H67.4951V18.5761C67.4951 15.747 65.3361 13.8519 62.0721 13.8519ZM65.0598 21.2041C65.0598 23.5541 63.7296 25.0456 61.4204 25.0456C60.0137 25.0456 59.0603 24.2628 59.0603 23.0992C59.0603 21.7602 60.1397 20.9018 61.7972 20.9018H65.0556L65.0598 21.2041Z" fill="black"/>
<path d="M76.8077 13.8519C74.925 13.8519 73.4191 14.7075 72.7419 16.3031V14.053H70.3066V26.7881H72.7419V19.8908C72.7419 17.6663 74.1472 16.0493 76.1306 16.0493C77.9127 16.0493 79.0928 17.4139 79.0928 19.4359V26.7881H81.5281V18.9554C81.5281 15.9238 79.6694 13.8519 76.8077 13.8519Z" fill="black"/>
<path d="M95.8874 14.053H92.724L87.2274 19.1322V8.72275H84.7666V26.7881H87.2274V22.1652L88.8084 20.6993L93.3516 26.7881H96.3649L90.565 19.031L95.8874 14.053Z" fill="black"/>
<path d="M118.306 13.8519C114.515 13.8519 111.775 16.6054 111.775 20.4213C111.775 24.2371 114.511 26.9906 118.302 26.9906C122.093 26.9906 124.809 24.2371 124.809 20.4213C124.809 16.6054 122.097 13.8519 118.306 13.8519ZM118.306 24.8431C115.898 24.8431 114.264 23.0236 114.264 20.4227C114.264 17.8218 115.896 16.0022 118.306 16.0022C120.69 16.0022 122.322 17.8218 122.322 20.4227C122.322 23.0236 120.69 24.8431 118.306 24.8431Z" fill="black"/>
<path d="M133.696 13.8519C131.813 13.8519 130.306 14.7075 129.629 16.3031V14.053H127.193V26.7881H129.626V19.8908C129.626 17.6663 131.031 16.0493 133.014 16.0493C134.797 16.0493 135.977 17.4139 135.977 19.4359V26.7881H138.409V18.9554C138.409 15.9238 136.558 13.8519 133.696 13.8519Z" fill="black"/>
<path d="M150.565 22.6443C150.214 24.0845 149.007 24.8931 147.151 24.8931C144.942 24.8931 143.385 23.2518 143.184 20.8505H152.85C152.874 20.6238 152.9 20.2188 152.9 19.8908C152.9 16.6568 150.816 13.8519 146.9 13.8519C143.008 13.8519 140.8 16.7822 140.8 20.3457C140.8 23.8835 143.235 26.9906 147.151 26.9906C150.267 26.9906 152.548 25.2795 153 22.6443H150.565ZM146.9 15.8226C148.984 15.8226 150.289 17.1059 150.442 19.0566H143.262C143.636 16.9348 144.917 15.8226 146.9 15.8226Z" fill="black"/>
<path d="M106.858 15.9238C106.106 14.6847 104.574 13.8519 102.842 13.8519C98.9755 13.8519 96.791 16.6311 96.791 20.4213C96.791 24.2115 98.9755 26.9906 102.867 26.9906C104.549 26.9906 106.106 26.1564 106.858 24.8931V26.7881H109.293V8.79976L106.858 10.7305V15.9238ZM103.143 24.8431C100.809 24.8431 99.2773 23.075 99.2773 20.4227C99.2773 17.7704 100.809 16.0022 103.143 16.0022C105.502 16.0022 107.034 17.7704 107.034 20.4227C107.034 23.075 105.502 24.8431 103.143 24.8431Z" fill="black"/>
</g>
<path d="M162.476 6.10402C163.708 6.10402 164.72 7.02802 164.72 9.18402C164.72 10.911 163.906 12.121 162.476 12.121C161.97 12.121 161.53 11.923 161.255 11.67V12H159.737V4.74002L161.255 3.98102V6.58802C161.541 6.33502 161.926 6.10402 162.476 6.10402ZM162.278 10.691C162.861 10.691 163.18 10.185 163.18 9.21702C163.18 8.02902 162.784 7.53402 162.19 7.53402C161.717 7.53402 161.475 7.73202 161.255 8.01802V10.196C161.486 10.515 161.838 10.691 162.278 10.691Z" fill="black"/>
<path d="M167.487 3.98102V12H165.969V4.74002L167.487 3.98102Z" fill="black"/>
<path d="M171.328 6.10402C172.835 6.10402 173.946 7.34702 173.946 9.11802C173.946 10.889 172.835 12.121 171.328 12.121C169.821 12.121 168.721 10.889 168.721 9.11802C168.721 7.34702 169.821 6.10402 171.328 6.10402ZM171.328 10.658C172.054 10.658 172.406 9.92102 172.406 9.11802C172.406 8.23802 172.054 7.56702 171.328 7.56702C170.602 7.56702 170.261 8.22702 170.261 9.11802C170.261 10.009 170.602 10.658 171.328 10.658Z" fill="black"/>
<path d="M179.806 6.22502V11.021C179.806 12.924 179.344 13.903 177.32 14.123L176.781 12.979C177.969 12.814 178.288 12.528 178.288 11.637C178.002 11.89 177.617 12.121 177.067 12.121C175.835 12.121 174.823 11.197 174.823 9.04102C174.823 7.31402 175.637 6.10402 177.067 6.10402C177.573 6.10402 178.013 6.30202 178.288 6.55502V6.22502H179.806ZM177.353 10.691C177.826 10.691 178.068 10.493 178.288 10.207V8.02902C178.057 7.71002 177.705 7.53402 177.265 7.53402C176.682 7.53402 176.363 8.04002 176.363 9.00802C176.363 10.196 176.759 10.691 177.353 10.691Z" fill="black"/>
<path fill-rule="evenodd" clip-rule="evenodd" d="M159 15.5V17.433L161.025 15.8581C161.323 15.626 161.691 15.5 162.069 15.5H184C184.276 15.5 184.5 15.2761 184.5 15V2C184.5 1.72386 184.276 1.5 184 1.5H156C155.724 1.5 155.5 1.72386 155.5 2V15C155.5 15.2761 155.724 15.5 156 15.5H159ZM161.946 17.0421L158.065 20.0606C157.835 20.2395 157.5 20.0756 157.5 19.7844V17H156C154.895 17 154 16.1046 154 15V2C154 0.89543 154.895 0 156 0H184C185.105 0 186 0.895431 186 2V15C186 16.1046 185.105 17 184 17H162.069C162.024 17 161.981 17.0148 161.946 17.0421Z" fill="#9354F0"/>
<defs>
<clipPath id="clip0_525_7118">
<rect width="153" height="28" fill="white" transform="translate(0 4)"/>
</clipPath>
</defs>
</svg>
