<svg width="153" height="28" viewBox="0 0 153 28" fill="none" xmlns="http://www.w3.org/2000/svg">
<g clip-path="url(#clip0_197_23)">
<path d="M27.8177 0H0V28H27.8177V0Z" fill="#9255F1"/>
<path d="M10.2524 14.0513V9.04622H6.68665V17.1627C6.68665 17.2069 6.69656 17.2497 6.6994 17.2939C6.70223 17.3381 6.70648 17.3852 6.71356 17.4365C6.72515 17.5152 6.74268 17.5929 6.76598 17.669C6.7759 17.7017 6.7844 17.7345 6.79573 17.7673C6.82635 17.8534 6.86378 17.9368 6.90765 18.0169C6.91473 18.0311 6.91898 18.0468 6.92748 18.0625C6.93359 18.0698 6.93927 18.0774 6.94448 18.0853C6.99261 18.1657 7.04709 18.242 7.1074 18.3135C7.1244 18.3334 7.13998 18.3548 7.1584 18.3748C7.21809 18.4394 7.28249 18.4995 7.35106 18.5545C7.37227 18.5737 7.39449 18.5918 7.41765 18.6087C7.4858 18.659 7.5578 18.7038 7.63298 18.7427L7.71373 18.7869C7.78488 18.8193 7.85827 18.8464 7.93331 18.8682C7.97015 18.881 8.00698 18.8938 8.04381 18.9038C8.10831 18.9185 8.17358 18.9294 8.23931 18.9366C8.29456 18.9438 8.3484 18.9509 8.40506 18.9537C8.4249 18.9537 8.44473 18.9537 8.46456 18.9537H8.47306C8.5099 18.9537 8.5439 18.9452 8.57931 18.9423C8.6391 18.9402 8.69871 18.9345 8.75781 18.9252C8.81999 18.9147 8.88149 18.9004 8.94198 18.8824C8.98994 18.8697 9.03722 18.8544 9.08365 18.8368C9.14974 18.8122 9.21411 18.7831 9.27631 18.7498C9.30323 18.7356 9.33156 18.7284 9.35706 18.7127L21.1253 11.8682V7.72864L10.2524 14.0513Z" fill="white"/>
<path d="M53.6364 10.4323C53.6364 7.29525 51.5029 5.10071 47.9627 5.10071H41.1627V22.7825H43.775V15.764H47.7303L51.7367 22.7882H54.5856L50.354 15.3733C52.4379 14.6018 53.6364 12.7795 53.6364 10.4323ZM43.775 7.3751H47.8833C50.15 7.3751 51.0212 8.81531 51.0212 10.4323C51.0212 12.0494 50.15 13.4896 47.8833 13.4896H43.775V7.3751Z" fill="white"/>
<path d="M62.0712 9.85193C59.0849 9.85193 56.8296 11.7214 56.6241 14.2225H58.8837C58.9588 12.9391 60.2395 11.8226 62.0004 11.8226C63.9582 11.8226 65.0632 12.8835 65.0632 14.425C65.0632 14.8798 64.787 15.1836 64.2132 15.1836H61.5697C58.582 15.1836 56.6496 16.6994 56.6496 19.1506C56.6496 21.425 58.3567 22.9907 60.9421 22.9907C62.8504 22.9907 64.4569 22.0809 65.059 20.7163V22.7882H67.4942V14.5761C67.4942 11.747 65.3352 9.85193 62.0712 9.85193ZM65.059 17.2041C65.059 19.5541 63.7287 21.0457 61.4196 21.0457C60.0128 21.0457 59.0594 20.2628 59.0594 19.0992C59.0594 17.7603 60.1389 16.9018 61.7964 16.9018H65.0547L65.059 17.2041Z" fill="white"/>
<path d="M76.8074 9.85193C74.9247 9.85193 73.4187 10.7075 72.7416 12.3031V10.053H70.3063V22.7882H72.7416V15.8908C72.7416 13.6664 74.1469 12.0493 76.1303 12.0493C77.9124 12.0493 79.0925 13.414 79.0925 15.436V22.7882H81.5278V14.9554C81.5278 11.9238 79.6691 9.85193 76.8074 9.85193Z" fill="white"/>
<path d="M95.8871 10.053H92.7237L87.227 15.1322V4.72278H84.7662V22.7882H87.227V18.1652L88.808 16.6994L93.3512 22.7882H96.3645L90.5647 15.031L95.8871 10.053Z" fill="white"/>
<path d="M118.306 9.85193C114.515 9.85193 111.775 12.6054 111.775 16.4213C111.775 20.2371 114.511 22.9907 118.302 22.9907C122.093 22.9907 124.808 20.2371 124.808 16.4213C124.808 12.6054 122.097 9.85193 118.306 9.85193ZM118.306 20.8432C115.897 20.8432 114.264 19.0237 114.264 16.4227C114.264 13.8218 115.896 12.0023 118.306 12.0023C120.69 12.0023 122.322 13.8218 122.322 16.4227C122.322 19.0237 120.69 20.8432 118.306 20.8432Z" fill="white"/>
<path d="M133.695 9.85193C131.812 9.85193 130.305 10.7075 129.628 12.3031V10.053H127.193V22.7882H129.625V15.8908C129.625 13.6664 131.03 12.0493 133.014 12.0493C134.796 12.0493 135.976 13.414 135.976 15.436V22.7882H138.408V14.9554C138.408 11.9238 136.557 9.85193 133.695 9.85193Z" fill="white"/>
<path d="M150.565 18.6444C150.213 20.0846 149.006 20.8931 147.151 20.8931C144.942 20.8931 143.385 19.2518 143.184 16.8505H152.85C152.874 16.6238 152.899 16.2188 152.899 15.8908C152.899 12.6568 150.815 9.85193 146.9 9.85193C143.008 9.85193 140.8 12.7823 140.8 16.3457C140.8 19.8835 143.235 22.9907 147.151 22.9907C150.267 22.9907 152.548 21.2795 153 18.6444H150.565ZM146.9 11.8226C148.984 11.8226 150.288 13.106 150.441 15.0567H143.262C143.636 12.9348 144.916 11.8226 146.9 11.8226Z" fill="white"/>
<path d="M106.858 11.9239C106.105 10.6847 104.574 9.85195 102.841 9.85195C98.9754 9.85195 96.7909 12.6311 96.7909 16.4213C96.7909 20.2115 98.9754 22.9907 102.867 22.9907C104.549 22.9907 106.105 22.1565 106.858 20.8931V22.7882H109.293V4.7998L106.858 6.73054V11.9239ZM103.143 20.8432C100.809 20.8432 99.2772 19.075 99.2772 16.4227C99.2772 13.7705 100.809 12.0023 103.143 12.0023C105.502 12.0023 107.033 13.7705 107.033 16.4227C107.033 19.075 105.502 20.8432 103.143 20.8432Z" fill="white"/>
</g>
<defs>
<clipPath id="clip0_197_23">
<rect width="153" height="28" fill="white"/>
</clipPath>
</defs>
</svg>
